<svg width="67" height="35" viewBox="0 0 67 35" fill="none" xmlns="http://www.w3.org/2000/svg">
<path fill-rule="evenodd" clip-rule="evenodd" d="M43.573 15.2225L42.6838 16.6234L39.9308 14.9009L37.647 15.4583L34.9967 21.7278L33.2437 25.2639L27.8199 26.1449L27.7992 24.246C23.2317 24.1503 16.3211 23.5323 12.6168 20.8722C9.95208 18.9645 8.61571 15.5974 7.57111 11.0908L6.13611 11.1064C5.79277 12.0239 4.9147 12.682 3.877 12.6912L3.37029 12.6953C2.02292 12.7073 0.916989 11.629 0.904987 10.2816L0.82956 3.36046C0.817557 2.01309 1.89582 0.907155 3.2432 0.895153L3.7499 0.891135C4.78952 0.881875 5.68539 1.5217 6.04593 2.43341L27.558 2.20306L28.1106 1.63858L35.4808 1.55915L47.514 9.0134L46.6896 10.3122L50.7783 12.9085C51.7804 13.5492 52.9438 14.3204 53.059 14.4355C53.1742 14.5506 53.8885 15.3833 54.6604 16.2928L65.9471 29.6014C66.719 30.5109 66.6082 31.8813 65.6987 32.6532L64.5666 33.6133C63.6571 34.3852 62.2867 34.2744 61.5148 33.3649L50.5122 20.3941C49.748 19.4807 48.2927 18.2222 47.2906 17.5815L43.573 15.2225ZM27.3166 10.8761L27.6533 10.986L27.6521 10.8725L27.7225 17.2413C22.4226 11.533 15.2467 14.6135 13.3073 15.6085C12.6567 14.4126 12.1416 12.8613 11.6866 11.046L27.3166 10.8761ZM13.9179 16.5682C20.2664 13.9682 24.1149 17.5923 25.9126 20.1408C21.8893 19.919 17.2498 19.2553 14.9573 17.6085C14.5779 17.3365 14.2335 16.9874 13.9179 16.5682Z" fill="#017DC0"/>
</svg>
